<svg xmlns="http://www.w3.org/2000/svg" width="72" height="48" viewBox="0 0 72 48">
  <defs>
    <style>
      .cls-1 {
        fill-rule: evenodd;
      }
    </style>
  </defs>
  <path id="Banknote" class="cls-1" d="M487.94,11753.8A142.038,142.038,0,0,0,489,11736a140.094,140.094,0,0,0-1.167-18.6,1.589,1.589,0,0,0-1.266-1.3,104.014,104.014,0,0,0-14.067-1.1,98.259,98.259,0,0,0-16.253,1.5,103.763,103.763,0,0,1-16.747,1.5,98.453,98.453,0,0,1-13.74-1.1,1.529,1.529,0,0,0-1.7,1.3A141.848,141.848,0,0,0,423,11736a140.094,140.094,0,0,0,1.167,18.6,1.589,1.589,0,0,0,1.266,1.3,104.014,104.014,0,0,0,14.067,1.1,98.259,98.259,0,0,0,16.253-1.5,103.763,103.763,0,0,1,16.747-1.5,98.453,98.453,0,0,1,13.74,1.1A1.529,1.529,0,0,0,487.94,11753.8Zm-15.44,3.2a98.259,98.259,0,0,0-16.253,1.5,103.763,103.763,0,0,1-16.747,1.5,96.126,96.126,0,0,1-14.509-1.2,4.434,4.434,0,0,1-3.8-3.8,151.713,151.713,0,0,1-.11-37.1,4.487,4.487,0,0,1,5.031-3.9,93.635,93.635,0,0,0,13.385,1,98.259,98.259,0,0,0,16.253-1.5,103.763,103.763,0,0,1,16.747-1.5,96.126,96.126,0,0,1,14.509,1.2,4.434,4.434,0,0,1,3.8,3.8,151.713,151.713,0,0,1,.11,37.1,4.487,4.487,0,0,1-5.031,3.9A93.635,93.635,0,0,0,472.5,11757Zm-7.412-21a9,9,0,1,0-9,9A9.046,9.046,0,0,0,465.088,11736Zm3,0a12,12,0,1,1-12-12A11.953,11.953,0,0,1,468.088,11736Zm-36-19.5a1.5,1.5,0,0,1,3,0,11.953,11.953,0,0,1-12,12,1.456,1.456,0,0,1-1.5-1.5,1.519,1.519,0,0,1,1.5-1.5A8.981,8.981,0,0,0,432.088,11716.5Zm45-1.5a1.5,1.5,0,0,1,3,0,8.981,8.981,0,0,0,9,9,1.519,1.519,0,0,1,1.5,1.5,1.456,1.456,0,0,1-1.5,1.5A11.953,11.953,0,0,1,477.088,11715Zm3,40.5a1.5,1.5,0,0,1-3,0,12.017,12.017,0,0,1,12-12,1.519,1.519,0,0,1,1.5,1.5,1.456,1.456,0,0,1-1.5,1.5A9.045,9.045,0,0,0,480.088,11755.5Zm-45,1.5a1.5,1.5,0,0,1-3,0,9.045,9.045,0,0,0-9-9,1.456,1.456,0,0,1-1.5-1.5,1.519,1.519,0,0,1,1.5-1.5A12.017,12.017,0,0,1,435.088,11757Z" transform="translate(-420 -11712)"/>
</svg>
