<svg xmlns="http://www.w3.org/2000/svg" width="66" height="60.2" viewBox="0 0 66 60.2">
  <defs>
    <style>
      .cls-1 {
        fill-rule: evenodd;
      }
    </style>
  </defs>
  <path id="Calendar" class="cls-1" d="M1193.5,11715.5h1.5a9.357,9.357,0,0,1,5.25,1.5,11.356,11.356,0,0,1,3.75,3.8,10.782,10.782,0,0,1,1.5,5.2v18c0,4.8-.15,9.7-0.6,15a10.679,10.679,0,0,1-9.75,9.6c-9.75.6-17.25,1.1-22.5,1.1s-12.75-.4-22.65-1.1a10.423,10.423,0,0,1-9.75-9.6c-0.45-5.3-.75-10.2-0.75-15v-18a8.718,8.718,0,0,1,1.5-5.2,11.356,11.356,0,0,1,3.75-3.8,11.129,11.129,0,0,1,5.25-1.5h1.5v-1.5a4.5,4.5,0,0,1,9,0v1.5h24v-1.5a4.5,4.5,0,0,1,9,0v1.5Zm-0.3,3a4.44,4.44,0,0,1-8.4,0h-24.45a4.44,4.44,0,0,1-8.4,0H1150a6.8,6.8,0,0,0-3.75,1,8.5,8.5,0,0,0-2.7,2.8,7.923,7.923,0,0,0-1.05,3.7v18c0,4.7.15,9.6,0.6,14.7a7.5,7.5,0,0,0,6.9,6.9c9.9,0.6,17.25,1.1,22.5,1.1,5.1,0,12.6-.3,22.35-1.1a7.367,7.367,0,0,0,6.9-6.8,123.768,123.768,0,0,0,.6-14.7v-17.9a6.394,6.394,0,0,0-1.05-3.8,8.2,8.2,0,0,0-2.7-2.7,8.354,8.354,0,0,0-3.75-1.1h-1.65v-0.1Zm-4.2-6a1.417,1.417,0,0,0-1.5,1.5v3a1.5,1.5,0,0,0,3,0v-3A1.417,1.417,0,0,0,1189,11712.5Zm-33,0a1.417,1.417,0,0,0-1.5,1.5v3a1.5,1.5,0,0,0,3,0v-3A1.417,1.417,0,0,0,1156,11712.5Zm-3,18a1.417,1.417,0,0,0-1.5,1.5v24a1.417,1.417,0,0,0,1.5,1.5h39a1.417,1.417,0,0,0,1.5-1.5v-24a1.417,1.417,0,0,0-1.5-1.5h-39Zm0-3h39a4.45,4.45,0,0,1,4.5,4.5v24a4.39,4.39,0,0,1-4.5,4.5h-39a4.39,4.39,0,0,1-4.5-4.5v-24A4.45,4.45,0,0,1,1153,11727.5Z" transform="translate(-1139.5 -11709.5)"/>
</svg>
