<svg xmlns="http://www.w3.org/2000/svg" width="72" height="57" viewBox="0 0 72 57">
  <defs>
    <style>
      .cls-1 {
        fill-rule: evenodd;
      }
    </style>
  </defs>
  <path id="Delivery" class="cls-1" d="M833,11726.5h4.362a7.625,7.625,0,0,1,5.959,2.9l6.138,8.1A7.431,7.431,0,0,1,851,11742v10a7.417,7.417,0,0,1-4.4,6.8,1.486,1.486,0,1,1-1.241-2.7A4.456,4.456,0,0,0,848,11752v-10a4.412,4.412,0,0,0-.925-2.7l-6.137-8a4.575,4.575,0,0,0-3.576-1.8H833v13.5a7.527,7.527,0,0,1-7.5,7.5H789.965a12.652,12.652,0,0,1-1.965-.2v1.7a4.456,4.456,0,0,0,2.627,4.1,1.488,1.488,0,1,1-1.25,2.7A7.415,7.415,0,0,1,785,11752v-2.7a10.719,10.719,0,0,1-5.488-8.3q-0.511-5.4-.512-9.9a97.175,97.175,0,0,1,.819-12.1,7.617,7.617,0,0,1,6.72-6.5c7.034-.7,13.27-1,18.711-1,5.466,0,12.416.3,20.857,1A7.517,7.517,0,0,1,833,11720v6.5Zm-10.5,30a1.5,1.5,0,0,1,0,3h-9a1.5,1.5,0,0,1,0-3h9Zm-35.673-41a4.473,4.473,0,0,0-4.032,3.9,93.853,93.853,0,0,0-.795,11.7q0,4.35.5,9.6a7.469,7.469,0,0,0,7.466,6.8H825.5a4.491,4.491,0,0,0,4.5-4.5v-23a4.553,4.553,0,0,0-4.136-4.5c-8.366-.7-15.239-1-20.614-1C799.913,11714.5,793.771,11714.8,786.827,11715.5Zm14.673,53a7.5,7.5,0,1,1,7.5-7.5A7.527,7.527,0,0,1,801.5,11768.5Zm0-3a4.5,4.5,0,1,0-4.5-4.5A4.491,4.491,0,0,0,801.5,11765.5Zm33,3a7.5,7.5,0,1,1,7.5-7.5A7.527,7.527,0,0,1,834.5,11768.5Zm0-3a4.5,4.5,0,1,0-4.5-4.5A4.491,4.491,0,0,0,834.5,11765.5Z" transform="translate(-779 -11711.5)"/>
</svg>
