<svg xmlns="http://www.w3.org/2000/svg" width="65.969" height="68" viewBox="0 0 65.969 68">
  <defs>
    <style>
      .cls-1 {
        fill: none;
        stroke: #000;
        stroke-width: 3px;
        fill-rule: evenodd;
      }
    </style>
  </defs>
  <path id="Forma_1" data-name="Forma 1" class="cls-1" d="M752.922,6032.51a2.724,2.724,0,0,0-3.831-1.99,23.177,23.177,0,0,1-9.763,2.16,23.337,23.337,0,0,1-20.168-11.48,22.937,22.937,0,0,1-1.178-20.81,22.551,22.551,0,0,1,5.631-7.69,2.46,2.46,0,0,0,.643-3.05,2.5,2.5,0,0,0-2.612-1.65,33.511,33.511,0,0,0-22.5,9.87,32.181,32.181,0,0,0-6.68,10.23A31.824,31.824,0,0,0,690,6020.48a31.333,31.333,0,0,0,2.611,12.62,32.684,32.684,0,0,0,7.023,10.37,33.136,33.136,0,0,0,10.491,6.95,32.992,32.992,0,0,0,42.6-16.3A2.7,2.7,0,0,0,752.922,6032.51Z" transform="translate(-688.5 -5986.5)"/>
</svg>
