<svg xmlns="http://www.w3.org/2000/svg" width="54" height="62.47" viewBox="0 0 54 62.47">
  <defs>
    <style>
      .cls-1 {
        fill-rule: evenodd;
      }
    </style>
  </defs>
  <path id="Refresh-2" class="cls-1" d="M449.126,5132.14a23.994,23.994,0,1,0,14.337,6.88,1.5,1.5,0,0,1,2.121-2.12,27.008,27.008,0,1,1-16.2-7.75,1.471,1.471,0,0,0-.208-0.24l-5.828-5.83a1.5,1.5,0,0,1,2.122-2.12l5.828,5.83a5.248,5.248,0,0,1,0,7.42l-5.808,5.82a1.5,1.5,0,0,1-2.123-2.12Z" transform="translate(-419.5 -5120.53)"/>
</svg>
