<svg xmlns="http://www.w3.org/2000/svg" width="70.969" height="53.97" viewBox="0 0 70.969 53.97">
  <defs>
    <style>
      .cls-1 {
        fill-rule: evenodd;
      }
    </style>
  </defs>
  <path id="Sync-2" class="cls-1" d="M482.9,6017.61a27,27,0,0,1-45.938,21.98,1.5,1.5,0,0,1,2.121-2.12,24,24,0,0,0,40.827-19.6l-5.77,5.76a1.5,1.5,0,1,1-2.12-2.13l5.817-5.8a5.247,5.247,0,0,1,7.422,0l5.831,5.83a1.5,1.5,0,1,1-2.121,2.12l-5.831-5.83A2.628,2.628,0,0,0,482.9,6017.61Zm-53.693,5.78a27,27,0,0,1,45.938-21.98,1.5,1.5,0,0,1-2.121,2.12,24,24,0,0,0-40.827,19.6l5.771-5.76a1.5,1.5,0,1,1,2.119,2.13l-5.817,5.8a5.247,5.247,0,0,1-7.422,0l-5.83-5.83a1.5,1.5,0,1,1,2.12-2.12l5.831,5.83A2.771,2.771,0,0,0,429.208,6023.39Z" transform="translate(-420.594 -5993.53)"/>
</svg>
