<svg xmlns="http://www.w3.org/2000/svg" width="21" height="33" viewBox="0 0 21 33">
  <defs>
    <style>
      .cls-1 {
        fill: #fff;
        fill-rule: evenodd;
      }
    </style>
  </defs>
  <path id="Hourglass" class="cls-1" d="M420.5,694a0.73,0.73,0,0,1,.6-0.75,53.524,53.524,0,0,1,9.825-.75h0.15a53.524,53.524,0,0,1,9.825.75,0.73,0.73,0,0,1,.6.75v0.151a0.778,0.778,0,0,1-.9.6c-0.15,0-.375-0.075-0.6-0.075l0.375,4.8a8.286,8.286,0,0,1-4.575,7.949L432.65,709l3.15,1.575a8.288,8.288,0,0,1,4.575,7.95l-0.375,4.8c0.225,0,.375-0.075.6-0.075a0.823,0.823,0,0,1,.9.6V724a0.73,0.73,0,0,1-.6.75,53.436,53.436,0,0,1-9.825.75h-0.15a53.436,53.436,0,0,1-9.825-.75,0.73,0.73,0,0,1-.6-0.75v-0.15a0.779,0.779,0,0,1,.9-0.6c0.15,0,.375.075,0.6,0.075l-0.375-4.8a8.288,8.288,0,0,1,4.575-7.95L429.35,709l-3.15-1.575a8.286,8.286,0,0,1-4.575-7.949l0.375-4.8c-0.225,0-.375.075-0.6,0.075a0.823,0.823,0,0,1-.9-0.6V694Zm10.5,0a56.146,56.146,0,0,0-7.5.45l-0.375,5.1a6.689,6.689,0,0,0,3.75,6.524l4.2,2.1,4.2-2.1a6.808,6.808,0,0,0,3.75-6.524l-0.375-5.1A60.2,60.2,0,0,0,431,694Zm0,15.825-4.2,2.1a6.812,6.812,0,0,0-3.75,6.525l0.375,5.1a56.784,56.784,0,0,0,7.5.45,55.98,55.98,0,0,0,7.5-.45l0.375-5.1a6.693,6.693,0,0,0-3.75-6.525Zm-4.5,10.726a0.484,0.484,0,0,0,.45.449h8.1a0.484,0.484,0,0,0,.45-0.449,1.474,1.474,0,0,0-.675-1.276L433.175,718a3.6,3.6,0,0,0-4.35,0l-1.65,1.275A1.474,1.474,0,0,0,426.5,720.551Zm1.425-3.751a5.176,5.176,0,0,1,6.15,0l1.65,1.275A3.239,3.239,0,0,1,437,720.551a1.985,1.985,0,0,1-1.95,1.949h-8.1a1.985,1.985,0,0,1-1.95-1.949,3.024,3.024,0,0,1,1.275-2.476Z" transform="translate(-420.5 -692.5)"/>
</svg>
