<svg xmlns="http://www.w3.org/2000/svg" width="33" height="33" viewBox="0 0 33 33">
  <defs>
    <style>
      .cls-1 {
        fill: #fff;
        fill-rule: evenodd;
      }
    </style>
  </defs>
  <path id="Target" class="cls-1" d="M849.479,710.749a13.5,13.5,0,0,1-12.729,12.73v2.271a0.75,0.75,0,0,1-1.5,0v-2.271a13.5,13.5,0,0,1-12.73-12.73h-2.27a0.75,0.75,0,1,1,0-1.5h2.27a13.5,13.5,0,0,1,12.73-12.728V694.25a0.75,0.75,0,0,1,1.5,0v2.271a13.5,13.5,0,0,1,12.729,12.728h2.271a0.75,0.75,0,1,1,0,1.5h-2.271ZM836,722a12,12,0,1,0-12-12A12,12,0,0,0,836,722Zm0-7.5a4.5,4.5,0,1,1,4.5-4.5A4.5,4.5,0,0,1,836,714.5Zm0-1.5a3,3,0,1,0-3-3A3,3,0,0,0,836,713Z" transform="translate(-819.5 -693.5)"/>
</svg>
