<svg xmlns="http://www.w3.org/2000/svg" width="33" height="33" viewBox="0 0 33 33">
  <defs>
    <style>
      .cls-1 {
        fill: #fff;
        fill-rule: evenodd;
      }
    </style>
  </defs>
  <path id="Quill_copy" data-name="Quill copy" class="cls-1" d="M1194.02,717.1h6.88a3.3,3.3,0,0,0,3.3-3.3h-0.83a0.825,0.825,0,0,1,0-1.65h5.78a3.3,3.3,0,0,0,3.3-3.3V707.2h-2.48a0.825,0.825,0,0,1,0-1.65h4.95a7.423,7.423,0,0,0,7.43-7.425V695.66A30.546,30.546,0,0,0,1194.02,717.1Zm-2.2,9.9a0.824,0.824,0,0,1-.82-0.826A32.176,32.176,0,0,1,1223.17,694a0.827,0.827,0,0,1,.83.825v3.3a9.074,9.074,0,0,1-9.08,9.075h-0.82v1.649a4.953,4.953,0,0,1-4.95,4.951h-3.3a4.952,4.952,0,0,1-4.95,4.95h-7.34a30.515,30.515,0,0,0-.9,6.6" transform="translate(-1191 -694)"/>
</svg>
