<svg xmlns="http://www.w3.org/2000/svg" width="42.81" height="38.1" viewBox="0 0 42.81 38.1">
  <defs>
    <style>
      .cls-1 {
        fill: #2a2f46;
        fill-rule: evenodd;
      }
    </style>
  </defs>
  <path id="Diamond" class="cls-1" d="M1305.55,10276l8.44,8,7.13,0.8-5.93-6.6a4.965,4.965,0,0,0-2.98-1.6A62.841,62.841,0,0,0,1305.55,10276Zm5.49,8-8.44-8-8.44,8h16.88Zm-6.13,24.1q7.1-7.65,10.3-11.7c2.25-2.9,4.43-6.1,6.56-9.5l-7.59-.8Zm7.14-22.1h-18.89l9.44,22.4Zm-12.39-10a62.356,62.356,0,0,0-6.66.6,4.937,4.937,0,0,0-2.98,1.6l-5.94,6.6,7.13-.8Zm0.66,32.1-9.29-22-7.57.8c2.16,3.4,4.35,6.6,6.55,9.5C1292.1,10299.1,1295.54,10303.1,1300.32,10308.1Zm-7.61-33.5a81.81,81.81,0,0,1,19.78,0,7.5,7.5,0,0,1,4.18,2.3l6.58,7.3a3.031,3.031,0,0,1,.31,3.6,116.143,116.143,0,0,1-6.79,9.8c-2.41,3.1-6.41,7.6-12,13.6a3.025,3.025,0,0,1-4.23.1c-0.05-.1-0.05-0.1-0.1-0.1-5.65-6-9.65-10.5-12.01-13.6-2.28-3-4.53-6.3-6.76-9.8a2.985,2.985,0,0,1,.3-3.6l6.57-7.3A7.436,7.436,0,0,1,1292.71,10274.6Z" transform="translate(-1281.19 -10274)"/>
</svg>
