<svg xmlns="http://www.w3.org/2000/svg" width="41.81" height="46" viewBox="0 0 41.81 46">
  <defs>
    <style>
      .cls-1 {
        fill: #2a2f46;
        fill-rule: evenodd;
      }
    </style>
  </defs>
  <path id="List-Check" class="cls-1" d="M1045.64,10284h-6.77a4.957,4.957,0,0,1-4.97-5c0-2-.01-3.6-0.01-7h-3.98q-6.33,0-12.57.6a3.06,3.06,0,0,0-2.68,2.7q-0.675,7.8-.67,16.8c0,5.3.18,10.2,0.52,14.8a5.024,5.024,0,0,0,4.55,4.6c3.94,0.3,7.55.5,10.82,0.5h1.07a0.986,0.986,0,0,1,1.01,1,1.019,1.019,0,0,1-.98,1h-1.1c-3.33,0-6.99-.2-10.99-0.5a6.982,6.982,0,0,1-6.36-6.5c-0.35-4.6-.53-9.6-0.53-14.9,0-6.1.23-11.7,0.68-16.9a5.1,5.1,0,0,1,4.46-4.6q6.345-.6,12.77-0.6h4.23a2.962,2.962,0,0,1,1.98.8,75.617,75.617,0,0,1,5.64,5.4c1.8,1.8,3.53,3.8,5.18,5.8a2.923,2.923,0,0,1,.69,1.8c0.13,3.6.2,6.3,0.2,8.2a1,1,0,1,1-1.99,0C1045.84,10290.2,1045.77,10287.5,1045.64,10284Zm-1.26-2c-1.31-1.5-2.66-3-4.05-4.4-1.42-1.5-2.9-3-4.44-4.4v5.8a2.96,2.96,0,0,0,2.98,3h5.51Zm-10.49,23a8.96,8.96,0,1,0,8.96-9A8.96,8.96,0,0,0,1033.89,10305Zm-1.99,0a10.95,10.95,0,1,1,10.95,11A10.958,10.958,0,0,1,1031.9,10305Zm9.96,0.6,4.27-4.3a0.994,0.994,0,1,1,1.41,1.4l-4.98,5c-0.08.1-.15,0.1-0.23,0.2a0.921,0.921,0,0,1-1.18-.2l-2.98-3a0.99,0.99,0,1,1,1.4-1.4Z" transform="translate(-1012 -10270)"/>
</svg>
