<svg xmlns="http://www.w3.org/2000/svg" width="31.84" height="42" viewBox="0 0 31.84 42">
  <defs>
    <style>
      .cls-1 {
        fill: #2a2f46;
        fill-rule: evenodd;
      }
    </style>
  </defs>
  <path id="Pin-1" class="cls-1" d="M1027.92,10198c-6.27,0-15.92-16.8-15.92-26a15.925,15.925,0,1,1,31.85,0C1043.85,10181.2,1034.19,10198,1027.92,10198Zm0-2c4.88,0,13.94-15.7,13.94-24a13.935,13.935,0,1,0-27.87,0C1013.99,10180.3,1023.05,10196,1027.92,10196Zm0-18a6,6,0,1,1,5.97-6A6,6,0,0,1,1027.92,10178Zm0-2a4,4,0,1,0-3.98-4A4,4,0,0,0,1027.92,10176Z" transform="translate(-1012 -10156)"/>
</svg>
