<svg xmlns="http://www.w3.org/2000/svg" width="35.81" height="44" viewBox="0 0 35.81 44">
  <defs>
    <style>
      .cls-1 {
        fill: #2a2f46;
        fill-rule: evenodd;
      }
    </style>
  </defs>
  <path id="Security-Add" class="cls-1" d="M1316.75,10163.6q0.78,10.2.78,17.4c0,3.9-2.83,8.3-7.31,12.2-3.81,3.4-8.26,5.8-10.6,5.8s-6.8-2.4-10.6-5.7c-4.49-3.9-7.32-8.3-7.32-12.2,0-4.8.27-10.6,0.79-17.5a5.01,5.01,0,0,1,3.42-4.4c9.03-2.9,13.11-4.2,13.71-4.2s4.7,1.3,13.7,4.2A5.035,5.035,0,0,1,1316.75,10163.6Zm-1.99.1a3,3,0,0,0-2.05-2.6c-8-2.6-12.84-4.1-13.09-4.1s-5.1,1.5-13.09,4.1a3.026,3.026,0,0,0-2.06,2.6q-0.78,10.35-.78,17.4c0,3.2,2.54,7.1,6.63,10.7,3.47,3,7.55,5.2,9.3,5.2,1.73,0,5.82-2.2,9.3-5.3,4.08-3.6,6.62-7.5,6.62-10.7C1315.54,10176.3,1315.28,10170.5,1314.76,10163.7Zm-16.14,14.9,7.26-7.3a0.994,0.994,0,0,1,1.41,1.4l-7.96,8h0a0.96,0.96,0,0,1-.71.3,1.3,1.3,0,0,1-.63-0.2c-0.02,0-.04-0.1-0.06-0.1h-0.01l-4.98-5a0.994,0.994,0,0,1,1.41-1.4Z" transform="translate(-1281.72 -10155)"/>
</svg>
