<svg xmlns="http://www.w3.org/2000/svg" width="81.218" height="266" viewBox="0 0 81.218 266">
  <defs>
    <style>
      .cls-1 {
        fill: #e5e9ee;
        fill-rule: evenodd;
      }
    </style>
  </defs>
  <path id="Forma_1" data-name="Forma 1" class="cls-1" d="M879.642,10395a2.105,2.105,0,0,0,1.307-.5l33.4-33.5a1.853,1.853,0,0,0,0-2.6l-30.763-30.9,32.115-32.2a1.848,1.848,0,0,0,0-2.6l-30.646-30.7,32.274-32.4a1.846,1.846,0,0,0,0-2.6l-30.764-30.9,32.112-32.2a1.833,1.833,0,0,0,0-2.6l-31.707-31.8a1.883,1.883,0,0,0-2.609,0,1.959,1.959,0,0,0,0,2.7l30.4,30.4-32.093,32.2a1.837,1.837,0,0,0,0,2.6,0.149,0.149,0,0,0,.162.1,2.175,2.175,0,0,0,.181.3l30.406,30.5-32.095,32.2a1.831,1.831,0,0,0-.47,1.7,1.91,1.91,0,0,0,.531,1.3L911.8,10294l-32.115,32.2a1.842,1.842,0,0,0,0,2.6c0.052,0,.111.1,0.162,0.1a2.7,2.7,0,0,0,.185.3l30.4,30.5-32.092,32.1a1.832,1.832,0,0,0,0,2.6A1.727,1.727,0,0,0,879.642,10395Zm39.8,0a2.054,2.054,0,0,0,1.305-.5l33.408-33.5a1.84,1.84,0,0,0,0-2.6l-30.767-30.9,32.114-32.2a1.838,1.838,0,0,0,0-2.6l-30.647-30.7,32.273-32.4a1.855,1.855,0,0,0,0-2.6l-30.774-30.9,32.114-32.2a1.833,1.833,0,0,0,0-2.6l-31.707-31.8a1.883,1.883,0,0,0-2.609,0,1.832,1.832,0,0,0,0,2.6l30.395,30.5-32.089,32.2a1.835,1.835,0,0,0,0,2.6,0.154,0.154,0,0,0,.17.1c0.072,0.1.093,0.2,0.176,0.3l30.4,30.5-32.1,32.2a1.835,1.835,0,0,0-.469,1.7,1.9,1.9,0,0,0,.537,1.3l30.406,30.5-32.1,32.2a1.846,1.846,0,0,0,0,2.6c0.053,0,.108.1,0.165,0.1a1.673,1.673,0,0,0,.184.3l30.4,30.4-32.093,32.2a1.833,1.833,0,0,0,0,2.6A1.724,1.724,0,0,0,919.444,10395Z" transform="translate(-877.813 -10129)"/>
</svg>
