<svg xmlns="http://www.w3.org/2000/svg" width="15" height="11.031" viewBox="0 0 15 11.031">
  <defs>
    <style>
      .cls-1 {
        fill: #fff;
        fill-rule: evenodd;
      }
    </style>
  </defs>
  <path id="Forma_1_copy_15" data-name="Forma 1 copy 15" class="cls-1" d="M497.173,197.446A0.588,0.588,0,0,1,497,197.06a0.582,0.582,0,0,1,.173-0.386l0.808-.772a0.574,0.574,0,0,1,.807,0l0.058,0.056,3.173,3.251a0.287,0.287,0,0,0,.4,0l7.731-7.661h0.057a0.575,0.575,0,0,1,.808,0l0.808,0.772a0.516,0.516,0,0,1,0,.771h0L502.6,202.24a0.575,0.575,0,0,1-.808,0l-4.5-4.629Z" transform="translate(-497 -191.375)"/>
</svg>
