<svg xmlns="http://www.w3.org/2000/svg" width="370" height="370" viewBox="0 0 370 370">
  <defs>
    <style>
      .cls-1 {
        fill: #fff;
        fill-rule: evenodd;
        opacity: 0.05;
      }
    </style>
  </defs>
  <path id="Forma_1_copy_11" data-name="Forma 1 copy 11" class="cls-1" d="M1109.22,4659.91a8.157,8.157,0,0,1,0-11.82l126.71-126.72a16.325,16.325,0,0,0,0-23.65l-23.65-23.65a18.256,18.256,0,0,0-11.83-5.07c-5.07,0-8.45,1.69-11.82,5.07l-126.72,126.71a8.157,8.157,0,0,1-11.82,0L923.374,4474.07a16.329,16.329,0,0,0-23.653,0l-23.653,23.65a16.329,16.329,0,0,0,0,23.65l126.712,126.72a8.157,8.157,0,0,1,0,11.82L876.068,4786.63a16.329,16.329,0,0,0,0,23.65l23.653,23.65a16.329,16.329,0,0,0,23.653,0l126.716-126.71a8.157,8.157,0,0,1,11.82,0l126.72,126.71a16.325,16.325,0,0,0,23.65,0l23.65-23.65a16.325,16.325,0,0,0,0-23.65Z" transform="translate(-871 -4469)"/>
</svg>
