<svg xmlns="http://www.w3.org/2000/svg" width="25.625" height="24.8" viewBox="0 0 25.625 24.8">
  <defs>
    <style>
      .cls-1 {
        fill: #fb5b46;
        fill-rule: evenodd;
      }
    </style>
  </defs>
  <path id="Forma_1" data-name="Forma 1" class="cls-1" d="M403.905,11007.2c-1.039-4.1-4.418-6.6-8.04-6a7.071,7.071,0,0,0-5.315,4.3,6.645,6.645,0,0,0-6.278-2.4c-3.623.6-6.034,4-5.737,8.2a7.214,7.214,0,0,0,.654,2.6,11.288,11.288,0,0,0,4.484,5.3l10.181,6.7,7.707-9.6a11.549,11.549,0,0,0,2.565-6.4A7.027,7.027,0,0,0,403.905,11007.2Z" transform="translate(-378.531 -11001.1)"/>
</svg>
