<svg xmlns="http://www.w3.org/2000/svg" width="44.812" height="44.82" viewBox="0 0 44.812 44.82">
  <defs>
    <style>
      .cls-1 {
        fill: #fff;
        fill-rule: evenodd;
      }
    </style>
  </defs>
  <path id="Forma_1" data-name="Forma 1" class="cls-1" d="M709.2,9837.2a3.2,3.2,0,0,0-6.4,0,3.289,3.289,0,0,0,.182,1.03L690,9844l-12.982-5.77a3.289,3.289,0,0,0,.182-1.03,12.064,12.064,0,1,0-3.618,4.75l10.508,4.67-4.108,1.83a4.017,4.017,0,1,0,3.618,4.75,3.289,3.289,0,0,0-.182-1.03l23-10.22A3.193,3.193,0,1,0,709.2,9837.2Zm-6.4,9.6a3.185,3.185,0,0,0-2.782,1.65l-2.138-.95-5.91,2.63,4.612,2.04a3.289,3.289,0,0,0-.182,1.03A5.06,5.06,0,1,0,702.8,9846.8ZM690,9811.6a12.8,12.8,0,0,0-12.8,12.8v6.29a3.187,3.187,0,0,0,1.426,2.66L682,9835.6v3.2h3.2v-3.2h3.2v3.2h3.2v-3.2h3.2v3.2H698v-3.2l3.374-2.25a3.187,3.187,0,0,0,1.426-2.66v-6.29A12.8,12.8,0,0,0,690,9811.6Zm-6.4,19.2a3.2,3.2,0,1,1,3.2-3.2A3.2,3.2,0,0,1,683.6,9830.8Zm4.8,1.6c0-1.77.717-3.2,1.6-3.2s1.6,1.43,1.6,3.2h-3.2Zm8-1.6a3.2,3.2,0,1,1,3.2-3.2A3.2,3.2,0,0,1,696.4,9830.8Z" transform="translate(-667.594 -9811.59)"/>
</svg>
