<svg xmlns="http://www.w3.org/2000/svg" width="11" height="12" viewBox="0 0 11 12">
  <defs>
    <style>
      .cls-1 {
        fill: #fff;
        fill-rule: evenodd;
      }
    </style>
  </defs>
  <path id="Forma_1" data-name="Forma 1" class="cls-1" d="M1322.31,46.47a0.6,0.6,0,0,1-.17.508l-1.54,1.678a0.929,0.929,0,0,1-.28.217,0.99,0.99,0,0,1-.33.114l-0.07.007a1.379,1.379,0,0,1-.15.007,4.923,4.923,0,0,1-.72-0.082,5.151,5.151,0,0,1-1.21-.407,9.562,9.562,0,0,1-1.62-.973,12.558,12.558,0,0,1-1.94-1.78,14.161,14.161,0,0,1-1.35-1.678,13.494,13.494,0,0,1-.86-1.48,8.307,8.307,0,0,1-.49-1.234,6.975,6.975,0,0,1-.22-0.954,4.22,4.22,0,0,1-.05-0.629c0.01-.152.02-0.237,0.02-0.253a1.253,1.253,0,0,1,.1-0.362,1.016,1.016,0,0,1,.2-0.3l1.55-1.692a0.491,0.491,0,0,1,.37-0.178,0.424,0.424,0,0,1,.27.1,0.942,0.942,0,0,1,.2.235l1.24,2.581a0.675,0.675,0,0,1,.06.445,0.82,0.82,0,0,1-.2.407l-0.57.623a0.285,0.285,0,0,0-.04.082,0.442,0.442,0,0,0-.02.1,2.345,2.345,0,0,0,.21.61,7.21,7.21,0,0,0,.43.743,8.358,8.358,0,0,0,.83,1.011,8.132,8.132,0,0,0,.93.909,5.344,5.344,0,0,0,.68.476,2.007,2.007,0,0,0,.42.185l0.15,0.032a0.233,0.233,0,0,0,.07-0.019,0.213,0.213,0,0,0,.08-0.044l0.66-.737a0.693,0.693,0,0,1,.49-0.2,0.6,0.6,0,0,1,.32.076h0.01l2.25,1.449A0.643,0.643,0,0,1,1322.31,46.47Z" transform="translate(-1311.31 -37)"/>
</svg>
